<?xml version="1.0" encoding="UTF-8"?>
<svg xmlns="http://www.w3.org/2000/svg" xmlns:xlink="http://www.w3.org/1999/xlink" width="810pt" height="809.999993pt" viewBox="0 0 810 809.999993" version="1.2">
<defs>
<clipPath id="clip1">
  <path d="M 20 0 L 770 0 L 770 728.9375 L 20 728.9375 Z M 20 0 "/>
</clipPath>
<clipPath id="clip2">
  <path d="M 0.269531 16 L 809.78125 16 L 809.78125 728.9375 L 0.269531 728.9375 Z M 0.269531 16 "/>
</clipPath>
</defs>
<g id="surface1">
<rect x="0" y="0" width="810" height="809.999993" style="fill:rgb(100%,100%,100%);fill-opacity:1;stroke:none;"/>
<rect x="0" y="0" width="810" height="809.999993" style="fill:rgb(100%,100%,100%);fill-opacity:1;stroke:none;"/>
<rect x="0" y="0" width="810" height="809.999993" style="fill:rgb(100%,100%,100%);fill-opacity:1;stroke:none;"/>
<g clip-path="url(#clip1)" clip-rule="nonzero">
<path style=" stroke:none;fill-rule:nonzero;fill:rgb(98.039246%,70.199585%,15.689087%);fill-opacity:1;" d="M 137.667969 358.007812 L 62.425781 358.007812 C 59.421875 358.007812 56.996094 355.582031 56.996094 352.582031 L 56.996094 343.179688 C 56.996094 340.183594 59.421875 337.753906 62.425781 337.753906 L 137.667969 337.753906 C 140.667969 337.753906 143.09375 340.183594 143.09375 343.179688 L 143.09375 352.582031 C 143.09375 355.582031 140.667969 358.007812 137.667969 358.007812 Z M 20.222656 293.929688 L 20.222656 263.511719 L 36.714844 263.511719 L 36.714844 293.929688 C 36.714844 295.011719 35.835938 295.890625 34.753906 295.890625 L 22.183594 295.890625 C 21.101562 295.890625 20.222656 295.011719 20.222656 293.929688 Z M 156.800781 84.417969 L 156.691406 84.394531 L 156.691406 68.261719 C 156.691406 30.5625 126.128906 0 88.429688 0 C 50.726562 0 20.171875 30.5625 20.171875 68.261719 L 20.171875 99.816406 L 23.953125 99.816406 L 39.523438 155.113281 C 40.136719 157.28125 42.386719 158.539062 44.550781 157.933594 L 54.164062 155.226562 C 56.332031 154.613281 57.589844 152.363281 56.984375 150.199219 L 37.980469 82.734375 C 37.367188 80.574219 35.121094 79.316406 32.953125 79.921875 L 27.070312 81.578125 L 27.070312 71.21875 C 27.070312 37.046875 54.546875 15.203125 88.429688 15.203125 C 122.320312 15.203125 149.785156 37.046875 149.785156 71.21875 L 149.785156 82.445312 L 147.1875 81.710938 C 145.019531 81.105469 142.773438 82.363281 142.164062 84.53125 L 123.15625 151.988281 C 122.550781 154.15625 123.808594 156.402344 125.976562 157.015625 L 135.589844 159.722656 C 137.75 160.328125 140.003906 159.070312 140.617188 156.910156 L 159.613281 89.445312 C 160.226562 87.28125 158.960938 85.03125 156.800781 84.417969 Z M 338.230469 106.210938 L 340.667969 108.644531 L 359.480469 89.832031 L 357.046875 87.394531 Z M 359.289062 81.15625 L 356.855469 78.71875 L 338.042969 97.535156 L 340.476562 99.96875 Z M 747.871094 728.9375 L 55.140625 728.9375 C 55.140625 728.9375 105.386719 616.851562 163.207031 554.867188 C 221.023438 492.886719 183.132812 453.558594 223.503906 360.660156 C 331.761719 111.542969 501.363281 79.789062 638.894531 115.429688 C 872.050781 175.84375 584.75 339.570312 702.546875 370.714844 C 820.339844 401.859375 747.871094 728.9375 747.871094 728.9375 "/>
</g>
<path style=" stroke:none;fill-rule:nonzero;fill:rgb(93.728638%,16.859436%,27.839661%);fill-opacity:1;" d="M 128.695312 573.210938 L 47.578125 573.210938 C 46.082031 573.210938 44.867188 574.425781 44.867188 575.917969 L 44.867188 582.050781 L 50.875 582.050781 L 56.320312 641.871094 L 119.957031 641.871094 L 125.402344 582.050781 L 131.410156 582.050781 L 131.410156 575.917969 C 131.410156 574.425781 130.195312 573.210938 128.695312 573.210938 Z M 411.679688 553.160156 C 411.679688 542.832031 401.792969 534.453125 389.601562 534.453125 C 377.410156 534.453125 367.523438 542.832031 367.523438 553.160156 C 367.523438 563.492188 377.410156 571.863281 389.601562 571.863281 C 401.792969 571.863281 411.679688 563.492188 411.679688 553.160156 Z M 543.777344 471.035156 L 553.625 491.457031 L 553.625 471.035156 Z M 586.425781 546.695312 L 585.875 556.167969 L 507.695312 581.984375 L 505.246094 574.015625 L 500.777344 635.761719 L 487.914062 636.167969 L 488.894531 627.074219 C 489.226562 625.5625 488.242188 624.085938 486.882812 624.085938 L 299.859375 624.085938 L 289.152344 540.117188 L 246.523438 587.179688 L 181.988281 549.859375 L 181.226562 537.285156 C 181.007812 533.5625 183.738281 530.316406 187.445312 529.90625 L 192.042969 529.398438 L 274.039062 421.507812 L 396.671875 374.792969 L 516.742188 414.988281 L 541.835938 467.015625 L 553.761719 467.015625 C 554.789062 467.015625 555.671875 467.394531 556.425781 468.152344 C 557.171875 468.90625 557.550781 469.804688 557.550781 470.847656 L 557.550781 494.613281 C 557.550781 495.65625 557.179688 496.554688 556.445312 497.300781 L 575.984375 537.828125 L 581.519531 539.574219 C 584.585938 540.542969 586.609375 543.476562 586.425781 546.695312 Z M 649.832031 160.875 L 664.261719 160.875 C 665.40625 160.875 666.335938 159.949219 666.335938 158.804688 L 666.335938 156.277344 L 647.761719 156.277344 L 647.761719 158.804688 C 647.761719 159.949219 648.683594 160.875 649.832031 160.875 Z M 435.941406 109.847656 C 439.566406 109.847656 442.511719 106.898438 442.511719 103.277344 C 442.511719 99.652344 439.566406 96.707031 435.941406 96.707031 C 432.324219 96.707031 429.371094 99.652344 429.371094 103.277344 C 429.371094 106.898438 432.324219 109.847656 435.941406 109.847656 Z M 428.734375 55.371094 L 268.882812 55.371094 L 268.882812 151.179688 L 428.734375 151.179688 Z M 614.011719 484.210938 C 613.453125 484.210938 612.988281 484.40625 612.601562 484.796875 C 612.214844 485.1875 612.027344 485.652344 612.027344 486.1875 L 612.027344 494.464844 L 608.054688 494.464844 L 608.054688 467.066406 L 598.074219 467.066406 C 597.523438 467.066406 597.050781 467.253906 596.664062 467.640625 C 596.277344 468.03125 596.089844 468.5 596.089844 469.050781 C 596.089844 469.601562 596.277344 470.070312 596.664062 470.453125 C 597.050781 470.839844 597.523438 471.035156 598.074219 471.035156 L 604.078125 471.035156 L 604.078125 494.464844 L 597.980469 494.464844 C 597.429688 494.464844 596.957031 494.65625 596.570312 495.035156 C 596.183594 495.414062 595.996094 495.871094 595.996094 496.40625 C 595.996094 496.957031 596.183594 497.433594 596.570312 497.835938 C 596.957031 498.234375 597.429688 498.4375 597.980469 498.4375 L 614.011719 498.4375 C 614.5625 498.4375 615.03125 498.25 615.414062 497.855469 C 615.800781 497.46875 615.996094 497.003906 615.996094 496.453125 L 615.996094 486.1875 C 615.996094 485.636719 615.800781 485.171875 615.414062 484.785156 C 615.03125 484.398438 614.5625 484.210938 614.011719 484.210938 Z M 582.871094 471.035156 L 570.769531 471.035156 L 570.769531 494.464844 L 582.871094 494.464844 Z M 585.675781 468.152344 C 586.421875 468.90625 586.800781 469.804688 586.800781 470.847656 L 586.800781 494.613281 C 586.800781 495.667969 586.421875 496.566406 585.675781 497.3125 C 584.921875 498.066406 584.023438 498.4375 582.96875 498.4375 L 570.625 498.4375 C 569.554688 498.4375 568.648438 498.066406 567.902344 497.3125 C 567.164062 496.566406 566.789062 495.667969 566.789062 494.613281 L 566.789062 470.847656 C 566.789062 469.804688 567.171875 468.90625 567.929688 468.152344 C 568.683594 467.394531 569.578125 467.015625 570.625 467.015625 L 583.011719 467.015625 C 584.035156 467.015625 584.921875 467.394531 585.675781 468.152344 Z M 734.496094 390.5 L 734.496094 397.734375 L 730.523438 397.734375 L 730.523438 386.433594 C 729.238281 385.214844 727.917969 384.050781 726.550781 382.9375 L 726.550781 397.734375 L 720.449219 397.734375 C 719.898438 397.734375 719.429688 397.925781 719.046875 398.304688 C 718.660156 398.683594 718.46875 399.140625 718.46875 399.675781 C 718.46875 400.226562 718.660156 400.703125 719.046875 401.105469 C 719.429688 401.503906 719.898438 401.707031 720.449219 401.707031 L 736.480469 401.707031 C 737.03125 401.707031 737.503906 401.519531 737.890625 401.125 C 738.277344 400.738281 738.464844 400.273438 738.464844 399.722656 L 738.464844 395.25 C 737.1875 393.605469 735.867188 392.019531 734.496094 390.5 Z M 705.339844 374.304688 L 693.238281 374.304688 L 693.238281 397.734375 L 705.339844 397.734375 Z M 709.035156 372.808594 C 709.179688 373.21875 709.269531 373.648438 709.269531 374.117188 L 709.269531 397.882812 C 709.269531 398.9375 708.894531 399.835938 708.148438 400.582031 C 707.398438 401.335938 706.492188 401.707031 705.4375 401.707031 L 693.09375 401.707031 C 692.023438 401.707031 691.117188 401.335938 690.378906 400.582031 C 689.632812 399.835938 689.265625 398.9375 689.265625 397.882812 L 689.265625 374.117188 C 689.265625 373.074219 689.644531 372.175781 690.398438 371.421875 C 691.15625 370.664062 692.054688 370.285156 693.09375 370.285156 L 701.027344 370.285156 C 701.527344 370.429688 702.027344 370.574219 702.546875 370.714844 C 704.777344 371.300781 706.933594 372.011719 709.035156 372.808594 Z M 676.09375 374.304688 L 663.988281 374.304688 L 663.988281 397.734375 L 676.09375 397.734375 Z M 678.894531 371.421875 C 679.648438 372.175781 680.019531 373.074219 680.019531 374.117188 L 680.019531 397.882812 C 680.019531 398.9375 679.648438 399.835938 678.894531 400.582031 C 678.148438 401.335938 677.246094 401.707031 676.1875 401.707031 L 663.851562 401.707031 C 662.773438 401.707031 661.871094 401.335938 661.132812 400.582031 C 660.390625 399.835938 660.019531 398.9375 660.019531 397.882812 L 660.019531 374.117188 C 660.019531 373.074219 660.398438 372.175781 661.15625 371.421875 C 661.910156 370.664062 662.808594 370.285156 663.851562 370.285156 L 676.238281 370.285156 C 677.261719 370.285156 678.148438 370.664062 678.894531 371.421875 Z M 648.742188 387.480469 C 648.191406 387.480469 647.71875 387.675781 647.332031 388.066406 C 646.945312 388.457031 646.757812 388.925781 646.757812 389.457031 L 646.757812 397.734375 L 642.785156 397.734375 L 642.785156 370.335938 L 632.804688 370.335938 C 632.25 370.335938 631.789062 370.523438 631.394531 370.910156 C 631.011719 371.300781 630.820312 371.769531 630.820312 372.320312 C 630.820312 372.871094 631.011719 373.339844 631.394531 373.722656 C 631.789062 374.109375 632.25 374.304688 632.804688 374.304688 L 638.8125 374.304688 L 638.8125 397.734375 L 632.710938 397.734375 C 632.160156 397.734375 631.6875 397.925781 631.300781 398.304688 C 630.921875 398.683594 630.726562 399.140625 630.726562 399.675781 C 630.726562 400.226562 630.921875 400.703125 631.300781 401.105469 C 631.6875 401.503906 632.160156 401.707031 632.710938 401.707031 L 648.742188 401.707031 C 649.292969 401.707031 649.761719 401.519531 650.144531 401.125 C 650.53125 400.738281 650.726562 400.273438 650.726562 399.722656 L 650.726562 389.457031 C 650.726562 388.90625 650.53125 388.441406 650.144531 388.054688 C 649.761719 387.667969 649.292969 387.480469 648.742188 387.480469 Z M 617.601562 374.304688 L 605.5 374.304688 L 605.5 397.734375 L 617.601562 397.734375 Z M 620.40625 371.421875 C 621.152344 372.175781 621.523438 373.074219 621.523438 374.117188 L 621.523438 397.882812 C 621.523438 398.9375 621.152344 399.835938 620.40625 400.582031 C 619.652344 401.335938 618.753906 401.707031 617.699219 401.707031 L 605.355469 401.707031 C 604.285156 401.707031 603.375 401.335938 602.636719 400.582031 C 601.894531 399.835938 601.523438 398.9375 601.523438 397.882812 L 601.523438 374.117188 C 601.523438 373.074219 601.902344 372.175781 602.660156 371.421875 C 603.414062 370.664062 604.3125 370.285156 605.355469 370.285156 L 617.742188 370.285156 C 618.765625 370.285156 619.652344 370.664062 620.40625 371.421875 Z M 570.484375 283.628906 L 582.582031 283.628906 L 582.582031 260.195312 L 570.484375 260.195312 Z M 570.339844 256.175781 L 582.726562 256.175781 C 583.75 256.175781 584.636719 256.554688 585.390625 257.3125 C 586.136719 258.066406 586.507812 258.96875 586.507812 260.007812 L 586.507812 283.773438 C 586.507812 284.828125 586.136719 285.726562 585.390625 286.480469 C 584.636719 287.226562 583.738281 287.597656 582.683594 287.597656 L 570.339844 287.597656 C 569.269531 287.597656 568.359375 287.226562 567.621094 286.480469 C 566.878906 285.726562 566.507812 284.828125 566.507812 283.773438 L 566.507812 260.007812 C 566.507812 258.96875 566.886719 258.066406 567.644531 257.3125 C 568.398438 256.554688 569.296875 256.175781 570.339844 256.175781 Z M 539.199219 283.628906 C 538.648438 283.628906 538.175781 283.816406 537.789062 284.195312 C 537.402344 284.574219 537.214844 285.03125 537.214844 285.570312 C 537.214844 286.117188 537.402344 286.59375 537.789062 286.996094 C 538.175781 287.394531 538.648438 287.597656 539.199219 287.597656 L 555.230469 287.597656 C 555.78125 287.597656 556.25 287.410156 556.632812 287.023438 C 557.019531 286.636719 557.214844 286.167969 557.214844 285.621094 L 557.214844 275.355469 C 557.214844 274.800781 557.019531 274.332031 556.632812 273.945312 C 556.25 273.558594 555.78125 273.371094 555.230469 273.371094 C 554.675781 273.371094 554.207031 273.566406 553.820312 273.957031 C 553.433594 274.355469 553.246094 274.816406 553.246094 275.355469 L 553.246094 283.628906 L 549.273438 283.628906 L 549.273438 256.226562 L 539.292969 256.226562 C 538.746094 256.226562 538.269531 256.421875 537.890625 256.808594 C 537.5 257.195312 537.308594 257.660156 537.308594 258.210938 C 537.308594 258.769531 537.5 259.234375 537.890625 259.617188 C 538.269531 260.007812 538.746094 260.195312 539.292969 260.195312 L 545.300781 260.195312 L 545.300781 283.628906 Z M 511.988281 283.628906 L 524.09375 283.628906 L 524.09375 260.195312 L 511.988281 260.195312 Z M 511.84375 256.175781 L 524.230469 256.175781 C 525.253906 256.175781 526.140625 256.554688 526.894531 257.3125 C 527.640625 258.066406 528.011719 258.96875 528.011719 260.007812 L 528.011719 283.773438 C 528.011719 284.828125 527.640625 285.726562 526.894531 286.480469 C 526.140625 287.226562 525.242188 287.597656 524.1875 287.597656 L 511.84375 287.597656 C 510.773438 287.597656 509.863281 287.226562 509.125 286.480469 C 508.382812 285.726562 508.015625 284.828125 508.015625 283.773438 L 508.015625 260.007812 C 508.015625 258.96875 508.390625 258.066406 509.148438 257.3125 C 509.90625 256.554688 510.804688 256.175781 511.84375 256.175781 Z M 490.777344 256.226562 L 480.796875 256.226562 C 480.25 256.226562 479.78125 256.421875 479.394531 256.808594 C 479.007812 257.195312 478.8125 257.660156 478.8125 258.210938 C 478.8125 258.769531 479.007812 259.234375 479.394531 259.617188 C 479.78125 260.007812 480.25 260.195312 480.796875 260.195312 L 486.804688 260.195312 L 486.804688 283.628906 L 480.703125 283.628906 C 480.152344 283.628906 479.683594 283.816406 479.300781 284.195312 C 478.914062 284.574219 478.71875 285.03125 478.71875 285.570312 C 478.71875 286.117188 478.914062 286.59375 479.300781 286.996094 C 479.683594 287.394531 480.152344 287.597656 480.703125 287.597656 L 496.734375 287.597656 C 497.285156 287.597656 497.757812 287.410156 498.136719 287.023438 C 498.53125 286.636719 498.71875 286.167969 498.71875 285.621094 L 498.71875 275.355469 C 498.71875 274.800781 498.53125 274.332031 498.136719 273.945312 C 497.757812 273.558594 497.285156 273.371094 496.734375 273.371094 C 496.183594 273.371094 495.714844 273.566406 495.332031 273.957031 C 494.945312 274.355469 494.75 274.816406 494.75 275.355469 L 494.75 283.628906 L 490.777344 283.628906 Z M 453.492188 283.628906 L 465.59375 283.628906 L 465.59375 260.195312 L 453.492188 260.195312 Z M 453.347656 256.175781 L 465.742188 256.175781 C 466.765625 256.175781 467.652344 256.554688 468.398438 257.3125 C 469.148438 258.066406 469.523438 258.96875 469.523438 260.007812 L 469.523438 283.773438 C 469.523438 284.828125 469.148438 285.726562 468.398438 286.480469 C 467.652344 287.226562 466.746094 287.597656 465.691406 287.597656 L 453.347656 287.597656 C 452.277344 287.597656 451.375 287.226562 450.632812 286.480469 C 449.886719 285.726562 449.519531 284.828125 449.519531 283.773438 L 449.519531 260.007812 C 449.519531 258.96875 449.898438 258.066406 450.652344 257.3125 C 451.410156 256.554688 452.308594 256.175781 453.347656 256.175781 Z M 422.214844 283.628906 C 421.65625 283.628906 421.1875 283.816406 420.804688 284.195312 C 420.417969 284.574219 420.226562 285.03125 420.226562 285.570312 C 420.226562 286.117188 420.417969 286.59375 420.804688 286.996094 C 421.1875 287.394531 421.65625 287.597656 422.214844 287.597656 L 438.238281 287.597656 C 438.789062 287.597656 439.261719 287.410156 439.648438 287.023438 C 440.035156 286.636719 440.230469 286.167969 440.230469 285.621094 L 440.230469 275.355469 C 440.230469 274.800781 440.035156 274.332031 439.648438 273.945312 C 439.261719 273.558594 438.789062 273.371094 438.238281 273.371094 C 437.6875 273.371094 437.21875 273.566406 436.835938 273.957031 C 436.449219 274.355469 436.253906 274.816406 436.253906 275.355469 L 436.253906 283.628906 L 432.28125 283.628906 L 432.28125 256.226562 L 422.300781 256.226562 C 421.753906 256.226562 421.285156 256.421875 420.898438 256.808594 C 420.511719 257.195312 420.324219 257.660156 420.324219 258.210938 C 420.324219 258.769531 420.511719 259.234375 420.898438 259.617188 C 421.285156 260.007812 421.753906 260.195312 422.300781 260.195312 L 428.308594 260.195312 L 428.308594 283.628906 Z M 392.964844 283.628906 C 392.410156 283.628906 391.941406 283.816406 391.554688 284.195312 C 391.175781 284.574219 390.980469 285.03125 390.980469 285.570312 C 390.980469 286.117188 391.175781 286.59375 391.554688 286.996094 C 391.941406 287.394531 392.410156 287.597656 392.964844 287.597656 L 408.996094 287.597656 C 409.546875 287.597656 410.015625 287.410156 410.402344 287.023438 C 410.785156 286.636719 410.980469 286.167969 410.980469 285.621094 L 410.980469 275.355469 C 410.980469 274.800781 410.785156 274.332031 410.402344 273.945312 C 410.015625 273.558594 409.546875 273.371094 408.996094 273.371094 C 408.441406 273.371094 407.972656 273.566406 407.585938 273.957031 C 407.199219 274.355469 407.003906 274.816406 407.003906 275.355469 L 407.003906 283.628906 L 403.035156 283.628906 L 403.035156 256.226562 L 393.058594 256.226562 C 392.503906 256.226562 392.035156 256.421875 391.65625 256.808594 C 391.265625 257.195312 391.074219 257.660156 391.074219 258.210938 C 391.074219 258.769531 391.265625 259.234375 391.65625 259.617188 C 392.035156 260.007812 392.503906 260.195312 393.058594 260.195312 L 399.066406 260.195312 L 399.066406 283.628906 Z M 365.753906 283.628906 L 377.859375 283.628906 L 377.859375 260.195312 L 365.753906 260.195312 Z M 362.890625 286.480469 C 362.148438 285.726562 361.78125 284.828125 361.78125 283.773438 L 361.78125 260.007812 C 361.78125 258.96875 362.15625 258.066406 362.914062 257.3125 C 363.671875 256.554688 364.566406 256.175781 365.609375 256.175781 L 377.996094 256.175781 C 379.019531 256.175781 379.90625 256.554688 380.660156 257.3125 C 381.40625 258.066406 381.777344 258.96875 381.777344 260.007812 L 381.777344 283.773438 C 381.777344 284.828125 381.40625 285.726562 380.660156 286.480469 C 379.90625 287.226562 379.007812 287.597656 377.953125 287.597656 L 365.609375 287.597656 C 364.539062 287.597656 363.628906 287.226562 362.890625 286.480469 Z M 693.289062 204.425781 L 681.175781 204.425781 L 681.175781 227.855469 L 693.289062 227.855469 Z M 693.382812 231.828125 L 681.039062 231.828125 C 679.96875 231.828125 679.058594 231.453125 678.320312 230.703125 C 677.578125 229.957031 677.207031 229.050781 677.207031 227.996094 L 677.207031 204.230469 C 677.207031 203.195312 677.585938 202.296875 678.34375 201.535156 C 679.097656 200.785156 679.996094 200.40625 681.039062 200.40625 L 693.425781 200.40625 C 694.453125 200.40625 695.335938 200.785156 696.089844 201.535156 C 696.835938 202.296875 697.207031 203.195312 697.207031 204.230469 L 697.207031 227.996094 C 697.207031 229.050781 696.835938 229.957031 696.089844 230.703125 C 695.335938 231.453125 694.4375 231.828125 693.382812 231.828125 Z M 664.527344 218.179688 C 664.136719 218.578125 663.945312 219.046875 663.945312 219.578125 L 663.945312 227.855469 L 659.972656 227.855469 L 659.972656 200.449219 L 649.996094 200.449219 C 649.445312 200.449219 648.96875 200.644531 648.589844 201.03125 C 648.199219 201.417969 648.007812 201.882812 648.007812 202.441406 C 648.007812 202.992188 648.199219 203.460938 648.589844 203.84375 C 648.96875 204.230469 649.445312 204.425781 649.996094 204.425781 L 656.003906 204.425781 L 656.003906 227.855469 L 649.898438 227.855469 C 649.347656 227.855469 648.882812 228.046875 648.488281 228.425781 C 648.109375 228.800781 647.914062 229.261719 647.914062 229.792969 C 647.914062 230.347656 648.109375 230.824219 648.488281 231.222656 C 648.882812 231.625 649.347656 231.828125 649.898438 231.828125 L 665.929688 231.828125 C 666.480469 231.828125 666.949219 231.632812 667.339844 231.246094 C 667.71875 230.859375 667.917969 230.394531 667.917969 229.84375 L 667.917969 219.578125 C 667.917969 219.027344 667.71875 218.5625 667.339844 218.175781 C 666.949219 217.78125 666.480469 217.59375 665.929688 217.59375 C 665.378906 217.59375 664.914062 217.789062 664.527344 218.179688 Z M 634.792969 204.425781 L 622.6875 204.425781 L 622.6875 227.855469 L 634.792969 227.855469 Z M 634.886719 231.828125 L 622.542969 231.828125 C 621.472656 231.828125 620.570312 231.453125 619.824219 230.703125 C 619.082031 229.957031 618.714844 229.050781 618.714844 227.996094 L 618.714844 204.230469 C 618.714844 203.195312 619.089844 202.296875 619.847656 201.535156 C 620.605469 200.785156 621.503906 200.40625 622.542969 200.40625 L 634.929688 200.40625 C 635.957031 200.40625 636.847656 200.785156 637.59375 201.535156 C 638.347656 202.296875 638.71875 203.195312 638.71875 204.230469 L 638.71875 227.996094 C 638.71875 229.050781 638.347656 229.957031 637.59375 230.703125 C 636.847656 231.453125 635.941406 231.828125 634.886719 231.828125 Z M 608.84375 231.246094 C 609.230469 230.859375 609.421875 230.394531 609.421875 229.84375 L 609.421875 219.578125 C 609.421875 219.027344 609.230469 218.5625 608.84375 218.175781 C 608.460938 217.78125 607.992188 217.59375 607.433594 217.59375 C 606.882812 217.59375 606.417969 217.789062 606.03125 218.179688 C 605.644531 218.578125 605.449219 219.046875 605.449219 219.578125 L 605.449219 227.855469 L 601.476562 227.855469 L 601.476562 200.449219 L 591.5 200.449219 C 590.949219 200.449219 590.480469 200.644531 590.09375 201.03125 C 589.707031 201.417969 589.511719 201.882812 589.511719 202.441406 C 589.511719 202.992188 589.707031 203.460938 590.09375 203.84375 C 590.480469 204.230469 590.949219 204.425781 591.5 204.425781 L 597.507812 204.425781 L 597.507812 227.855469 L 591.402344 227.855469 C 590.851562 227.855469 590.386719 228.046875 590 228.425781 C 589.613281 228.800781 589.417969 229.261719 589.417969 229.792969 C 589.417969 230.347656 589.613281 230.824219 590 231.222656 C 590.386719 231.625 590.851562 231.828125 591.402344 231.828125 L 607.433594 231.828125 C 607.992188 231.828125 608.460938 231.632812 608.84375 231.246094 Z M 576.296875 204.425781 L 564.191406 204.425781 L 564.191406 227.855469 L 576.296875 227.855469 Z M 576.441406 200.40625 C 577.464844 200.40625 578.351562 200.785156 579.097656 201.535156 C 579.851562 202.296875 580.222656 203.195312 580.222656 204.230469 L 580.222656 227.996094 C 580.222656 229.050781 579.851562 229.957031 579.097656 230.703125 C 578.351562 231.453125 577.445312 231.828125 576.390625 231.828125 L 564.050781 231.828125 C 562.976562 231.828125 562.074219 231.453125 561.332031 230.703125 C 560.585938 229.957031 560.21875 229.050781 560.21875 227.996094 L 560.21875 204.230469 C 560.21875 203.195312 560.601562 202.296875 561.351562 201.535156 C 562.109375 200.785156 563.007812 200.40625 564.050781 200.40625 Z M 532.914062 227.855469 C 532.363281 227.855469 531.890625 228.046875 531.503906 228.425781 C 531.117188 228.800781 530.929688 229.261719 530.929688 229.792969 C 530.929688 230.347656 531.117188 230.824219 531.503906 231.222656 C 531.890625 231.625 532.363281 231.828125 532.914062 231.828125 L 548.9375 231.828125 C 549.496094 231.828125 549.964844 231.632812 550.347656 231.246094 C 550.734375 230.859375 550.929688 230.394531 550.929688 229.84375 L 550.929688 219.578125 C 550.929688 219.027344 550.734375 218.5625 550.347656 218.175781 C 549.964844 217.78125 549.496094 217.59375 548.9375 217.59375 C 548.386719 217.59375 547.921875 217.789062 547.535156 218.179688 C 547.148438 218.578125 546.953125 219.046875 546.953125 219.578125 L 546.953125 227.855469 L 542.980469 227.855469 L 542.980469 200.449219 L 533.003906 200.449219 C 532.453125 200.449219 531.984375 200.644531 531.597656 201.03125 C 531.210938 201.417969 531.023438 201.882812 531.023438 202.441406 C 531.023438 202.992188 531.210938 203.460938 531.597656 203.84375 C 531.984375 204.230469 532.453125 204.425781 533.003906 204.425781 L 539.011719 204.425781 L 539.011719 227.855469 Z M 518.285156 218.179688 C 517.902344 218.578125 517.710938 219.046875 517.710938 219.578125 L 517.710938 227.855469 L 513.734375 227.855469 L 513.734375 200.449219 L 503.761719 200.449219 C 503.203125 200.449219 502.734375 200.644531 502.355469 201.03125 C 501.964844 201.417969 501.773438 201.882812 501.773438 202.441406 C 501.773438 202.992188 501.964844 203.460938 502.355469 203.84375 C 502.734375 204.230469 503.203125 204.425781 503.761719 204.425781 L 509.769531 204.425781 L 509.769531 227.855469 L 503.664062 227.855469 C 503.117188 227.855469 502.640625 228.046875 502.253906 228.425781 C 501.875 228.800781 501.679688 229.261719 501.679688 229.792969 C 501.679688 230.347656 501.875 230.824219 502.253906 231.222656 C 502.640625 231.625 503.117188 231.828125 503.664062 231.828125 L 519.695312 231.828125 C 520.246094 231.828125 520.714844 231.632812 521.101562 231.246094 C 521.488281 230.859375 521.683594 230.394531 521.683594 229.84375 L 521.683594 219.578125 C 521.683594 219.027344 521.488281 218.5625 521.101562 218.175781 C 520.714844 217.78125 520.246094 217.59375 519.695312 217.59375 C 519.148438 217.59375 518.671875 217.789062 518.285156 218.179688 Z M 488.558594 204.425781 L 476.453125 204.425781 L 476.453125 227.855469 L 488.558594 227.855469 Z M 488.695312 200.40625 C 489.722656 200.40625 490.605469 200.785156 491.359375 201.535156 C 492.105469 202.296875 492.480469 203.195312 492.480469 204.230469 L 492.480469 227.996094 C 492.480469 229.050781 492.105469 229.957031 491.359375 230.703125 C 490.605469 231.453125 489.707031 231.828125 488.652344 231.828125 L 476.308594 231.828125 C 475.238281 231.828125 474.328125 231.453125 473.589844 230.703125 C 472.847656 229.957031 472.476562 229.050781 472.476562 227.996094 L 472.476562 204.230469 C 472.476562 203.195312 472.855469 202.296875 473.613281 201.535156 C 474.367188 200.785156 475.265625 200.40625 476.308594 200.40625 Z M 562.902344 186.644531 L 575.003906 186.644531 L 575.003906 163.214844 L 562.902344 163.214844 Z M 560.035156 189.496094 C 559.296875 188.75 558.929688 187.84375 558.929688 186.789062 L 558.929688 163.023438 C 558.929688 161.988281 559.308594 161.089844 560.0625 160.328125 C 560.820312 159.578125 561.71875 159.199219 562.757812 159.199219 L 575.152344 159.199219 C 576.167969 159.199219 577.0625 159.578125 577.808594 160.328125 C 578.554688 161.089844 578.933594 161.988281 578.933594 163.023438 L 578.933594 186.789062 C 578.933594 187.84375 578.554688 188.75 577.808594 189.496094 C 577.0625 190.25 576.15625 190.621094 575.101562 190.621094 L 562.757812 190.621094 C 561.6875 190.621094 560.78125 190.25 560.035156 189.496094 Z M 531.625 186.644531 C 531.066406 186.644531 530.597656 186.839844 530.214844 187.21875 C 529.828125 187.59375 529.632812 188.046875 529.632812 188.585938 C 529.632812 189.136719 529.828125 189.617188 530.214844 190.015625 C 530.597656 190.417969 531.066406 190.621094 531.625 190.621094 L 547.648438 190.621094 C 548.199219 190.621094 548.671875 190.425781 549.058594 190.039062 C 549.445312 189.652344 549.640625 189.1875 549.640625 188.636719 L 549.640625 178.371094 C 549.640625 177.820312 549.445312 177.355469 549.058594 176.96875 C 548.671875 176.578125 548.199219 176.386719 547.648438 176.386719 C 547.097656 176.386719 546.628906 176.582031 546.246094 176.972656 C 545.859375 177.371094 545.664062 177.835938 545.664062 178.371094 L 545.664062 186.644531 L 541.691406 186.644531 L 541.691406 160.875 L 554.8125 160.875 C 555.953125 160.875 556.882812 159.949219 556.882812 158.804688 L 556.882812 156.277344 L 538.308594 156.277344 L 538.308594 158.804688 C 538.308594 158.957031 538.371094 159.097656 538.402344 159.242188 L 531.710938 159.242188 C 531.160156 159.242188 530.695312 159.4375 530.308594 159.824219 C 529.921875 160.210938 529.734375 160.683594 529.734375 161.234375 C 529.734375 161.785156 529.921875 162.253906 530.308594 162.636719 C 530.695312 163.023438 531.160156 163.214844 531.710938 163.214844 L 537.71875 163.214844 L 537.71875 186.644531 Z M 504.40625 186.644531 L 516.515625 186.644531 L 516.515625 163.214844 L 504.40625 163.214844 Z M 501.546875 189.496094 C 500.808594 188.75 500.433594 187.84375 500.433594 186.789062 L 500.433594 163.023438 C 500.433594 161.988281 500.8125 161.089844 501.574219 160.328125 C 502.324219 159.578125 503.222656 159.199219 504.265625 159.199219 L 516.65625 159.199219 C 517.679688 159.199219 518.566406 159.578125 519.3125 160.328125 C 520.0625 161.089844 520.4375 161.988281 520.4375 163.023438 L 520.4375 186.789062 C 520.4375 187.84375 520.0625 188.75 519.3125 189.496094 C 518.566406 190.25 517.667969 190.621094 516.605469 190.621094 L 504.265625 190.621094 C 503.191406 190.621094 502.285156 190.25 501.546875 189.496094 Z M 475.164062 186.644531 L 487.261719 186.644531 L 487.261719 163.214844 L 475.164062 163.214844 Z M 472.300781 189.496094 C 471.558594 188.75 471.1875 187.84375 471.1875 186.789062 L 471.1875 163.023438 C 471.1875 161.988281 471.566406 161.089844 472.324219 160.328125 C 473.078125 159.578125 473.976562 159.199219 475.019531 159.199219 L 487.40625 159.199219 C 488.429688 159.199219 489.316406 159.578125 490.070312 160.328125 C 490.816406 161.089844 491.1875 161.988281 491.1875 163.023438 L 491.1875 186.789062 C 491.1875 187.84375 490.816406 188.75 490.070312 189.496094 C 489.316406 190.25 488.417969 190.621094 487.363281 190.621094 L 475.019531 190.621094 C 473.949219 190.621094 473.039062 190.25 472.300781 189.496094 Z M 445.914062 186.644531 L 458.019531 186.644531 L 458.019531 163.214844 L 445.914062 163.214844 Z M 441.9375 163.023438 C 441.9375 161.988281 442.316406 161.089844 443.078125 160.328125 C 443.828125 159.578125 444.726562 159.199219 445.769531 159.199219 L 458.160156 159.199219 C 459.183594 159.199219 460.070312 159.578125 460.820312 160.328125 C 461.566406 161.089844 461.945312 161.988281 461.945312 163.023438 L 461.945312 186.789062 C 461.945312 187.84375 461.566406 188.75 460.820312 189.496094 C 460.070312 190.25 459.171875 190.621094 458.113281 190.621094 L 445.769531 190.621094 C 444.703125 190.621094 443.796875 190.25 443.050781 189.496094 C 442.3125 188.75 441.9375 187.84375 441.9375 186.789062 Z M 428.675781 186.644531 L 424.707031 186.644531 L 424.707031 159.242188 L 414.726562 159.242188 C 414.175781 159.242188 413.707031 159.4375 413.320312 159.824219 C 412.9375 160.210938 412.742188 160.683594 412.742188 161.234375 C 412.742188 161.785156 412.9375 162.253906 413.320312 162.636719 C 413.707031 163.023438 414.175781 163.214844 414.726562 163.214844 L 420.734375 163.214844 L 420.734375 186.644531 L 414.632812 186.644531 C 414.082031 186.644531 413.613281 186.839844 413.226562 187.21875 C 412.839844 187.59375 412.644531 188.046875 412.644531 188.585938 C 412.644531 189.136719 412.839844 189.617188 413.226562 190.015625 C 413.613281 190.417969 414.082031 190.621094 414.632812 190.621094 L 430.664062 190.621094 C 431.210938 190.621094 431.679688 190.425781 432.066406 190.039062 C 432.457031 189.652344 432.648438 189.1875 432.648438 188.636719 L 432.648438 178.371094 C 432.648438 177.820312 432.457031 177.355469 432.066406 176.96875 C 431.679688 176.578125 431.210938 176.386719 430.664062 176.386719 C 430.113281 176.386719 429.644531 176.582031 429.257812 176.972656 C 428.867188 177.371094 428.675781 177.835938 428.675781 178.371094 Z M 385.382812 186.644531 C 384.832031 186.644531 384.363281 186.839844 383.980469 187.21875 C 383.59375 187.59375 383.398438 188.046875 383.398438 188.585938 C 383.398438 189.136719 383.59375 189.617188 383.980469 190.015625 C 384.363281 190.417969 384.832031 190.621094 385.382812 190.621094 L 401.414062 190.621094 C 401.964844 190.621094 402.433594 190.425781 402.824219 190.039062 C 403.210938 189.652344 403.398438 189.1875 403.398438 188.636719 L 403.398438 178.371094 C 403.398438 177.820312 403.210938 177.355469 402.824219 176.96875 C 402.433594 176.578125 401.964844 176.386719 401.414062 176.386719 C 400.863281 176.386719 400.394531 176.582031 400.011719 176.972656 C 399.625 177.371094 399.429688 177.835938 399.429688 178.371094 L 399.429688 186.644531 L 395.457031 186.644531 L 395.457031 159.242188 L 385.476562 159.242188 C 384.929688 159.242188 384.460938 159.4375 384.074219 159.824219 C 383.6875 160.210938 383.492188 160.683594 383.492188 161.234375 C 383.492188 161.785156 383.6875 162.253906 384.074219 162.636719 C 384.460938 163.023438 384.929688 163.214844 385.476562 163.214844 L 391.484375 163.214844 L 391.484375 186.644531 Z M 354.199219 173.8125 L 354.199219 186.789062 C 354.199219 187.84375 354.566406 188.75 355.3125 189.496094 C 356.054688 190.25 356.957031 190.621094 358.027344 190.621094 L 370.371094 190.621094 C 371.425781 190.621094 372.332031 190.25 373.078125 189.496094 C 373.828125 188.75 374.203125 187.84375 374.203125 186.789062 L 374.203125 163.023438 C 374.203125 161.988281 373.828125 161.089844 373.078125 160.328125 C 372.835938 160.082031 372.570312 159.894531 372.292969 159.722656 C 370.710938 160.867188 369.144531 162.039062 367.570312 163.214844 L 370.273438 163.214844 L 370.273438 186.644531 L 358.171875 186.644531 L 358.171875 170.554688 C 356.851562 171.625 355.523438 172.710938 354.199219 173.8125 Z M 75.851562 256.761719 L 82.804688 256.761719 L 82.804688 245.007812 L 83.890625 245.007812 L 83.890625 256.761719 L 90.132812 256.761719 C 92.0625 256.761719 93.667969 256.214844 94.914062 255.125 C 96.195312 254 96.875 252.449219 96.875 250.648438 C 96.875 249.238281 96.449219 248.035156 95.648438 247.125 C 96.414062 246.0625 96.613281 244.949219 96.613281 244.070312 C 96.613281 242.351562 95.949219 240.847656 94.699219 239.726562 C 93.457031 238.621094 91.636719 238.082031 89.128906 238.082031 L 73.496094 238.082031 L 73.496094 245.007812 L 75.851562 245.007812 Z M 65.9375 244.722656 L 63.996094 244.722656 L 63.996094 238.082031 L 72.679688 238.082031 L 72.679688 256.761719 L 65.9375 256.761719 L 65.9375 244.722656 "/>
<path style=" stroke:none;fill-rule:nonzero;fill:rgb(47.059631%,30.979919%,36.859131%);fill-opacity:1;" d="M 427.753906 366.996094 L 427.753906 386.882812 L 437.371094 394.359375 C 437.371094 394.359375 404.460938 430.574219 392.566406 430.574219 C 380.746094 430.574219 348.394531 397.222656 348.394531 397.222656 L 359.347656 389.320312 L 359.347656 369.242188 C 354.625 364.363281 351.644531 357.875 351.289062 349.761719 L 350.417969 328.445312 C 344.042969 329.027344 333.785156 310.707031 339.28125 302.066406 C 342.394531 297.179688 346.363281 300.46875 349.445312 304.710938 L 348.335938 277.550781 C 347.914062 268.070312 355.488281 260.160156 364.976562 260.160156 L 420.171875 260.160156 C 429.65625 260.160156 437.226562 268.070312 436.808594 277.550781 L 435.40625 311.855469 C 437.5 306.101562 442.398438 294.972656 446.914062 302.066406 C 452.71875 311.191406 440.9375 331.140625 434.742188 328.160156 L 433.855469 349.761719 C 433.550781 356.6875 431.328125 362.421875 427.753906 366.996094 Z M 241.9375 584.53125 L 187.367188 552.96875 L 163.703125 587.1875 L 163.65625 587.179688 L 154.359375 600.941406 C 145.316406 614.335938 159.304688 644.296875 175.386719 645.960938 L 319.40625 649.628906 L 320.171875 642.199219 L 278.390625 642.199219 L 277.054688 628.367188 C 276.566406 626.199219 277.992188 624.085938 279.933594 624.085938 L 322.042969 624.085938 L 324.140625 603.742188 L 234.578125 594.503906 Z M 571.140625 647.257812 L 487.816406 637.070312 L 488.894531 627.074219 C 489.226562 625.5625 488.242188 624.085938 486.882812 624.085938 L 428.390625 624.085938 L 430.183594 583.683594 L 517.933594 587.578125 L 513.808594 579.964844 L 577.128906 559.058594 L 596.988281 602.578125 L 598.535156 605.8125 C 605.523438 620.386719 587.285156 647.972656 571.140625 647.257812 "/>
<g clip-path="url(#clip2)" clip-rule="nonzero">
<path style=" stroke:none;fill-rule:nonzero;fill:rgb(7.839966%,12.159729%,20.779419%);fill-opacity:1;" d="M 114.550781 592.46875 L 114.550781 597.75 C 114.550781 598.695312 115.320312 599.46875 116.269531 599.46875 C 117.21875 599.46875 117.988281 598.695312 117.988281 597.75 L 117.988281 592.46875 C 117.988281 591.519531 117.21875 590.746094 116.269531 590.746094 C 115.320312 590.746094 114.550781 591.519531 114.550781 592.46875 Z M 109.722656 597.75 L 109.722656 592.46875 C 109.722656 591.519531 108.953125 590.746094 107.996094 590.746094 C 107.050781 590.746094 106.277344 591.519531 106.277344 592.46875 L 106.277344 597.75 C 106.277344 598.695312 107.050781 599.46875 107.996094 599.46875 C 108.953125 599.46875 109.722656 598.695312 109.722656 597.75 Z M 101.457031 597.75 L 101.457031 592.46875 C 101.457031 591.519531 100.6875 590.746094 99.738281 590.746094 C 98.785156 590.746094 98.011719 591.519531 98.011719 592.46875 L 98.011719 597.75 C 98.011719 598.695312 98.785156 599.46875 99.738281 599.46875 C 100.6875 599.46875 101.457031 598.695312 101.457031 597.75 Z M 93.1875 597.75 L 93.1875 592.46875 C 93.1875 591.519531 92.414062 590.746094 91.46875 590.746094 C 90.511719 590.746094 89.746094 591.519531 89.746094 592.46875 L 89.746094 597.75 C 89.746094 598.695312 90.511719 599.46875 91.46875 599.46875 C 92.414062 599.46875 93.1875 598.695312 93.1875 597.75 Z M 84.921875 597.75 L 84.921875 592.46875 C 84.921875 591.519531 84.15625 590.746094 83.203125 590.746094 C 82.253906 590.746094 81.480469 591.519531 81.480469 592.46875 L 81.480469 597.75 C 81.480469 598.695312 82.253906 599.46875 83.203125 599.46875 C 84.15625 599.46875 84.921875 598.695312 84.921875 597.75 Z M 76.65625 597.75 L 76.65625 592.46875 C 76.65625 591.519531 75.886719 590.746094 74.929688 590.746094 C 73.980469 590.746094 73.210938 591.519531 73.210938 592.46875 L 73.210938 597.75 C 73.210938 598.695312 73.980469 599.46875 74.929688 599.46875 C 75.886719 599.46875 76.65625 598.695312 76.65625 597.75 Z M 68.390625 597.75 L 68.390625 592.46875 C 68.390625 591.519531 67.621094 590.746094 66.671875 590.746094 C 65.714844 590.746094 64.945312 591.519531 64.945312 592.46875 L 64.945312 597.75 C 64.945312 598.695312 65.714844 599.46875 66.671875 599.46875 C 67.621094 599.46875 68.390625 598.695312 68.390625 597.75 Z M 60.121094 592.46875 C 60.121094 591.519531 59.347656 590.746094 58.398438 590.746094 C 57.449219 590.746094 56.679688 591.519531 56.679688 592.46875 L 56.679688 597.75 C 56.679688 598.695312 57.449219 599.46875 58.398438 599.46875 C 59.347656 599.46875 60.121094 598.695312 60.121094 597.75 Z M 61.316406 607.632812 L 111.417969 607.632812 C 112.375 607.632812 113.144531 606.859375 113.144531 605.914062 C 113.144531 604.957031 112.375 604.1875 111.417969 604.1875 L 61.316406 604.1875 C 60.359375 604.1875 59.59375 604.957031 59.59375 605.914062 C 59.59375 606.859375 60.359375 607.632812 61.316406 607.632812 Z M 415.777344 299.929688 C 412.644531 299.910156 409.578125 300.703125 407.117188 302.308594 C 406.320312 302.832031 406.101562 303.902344 406.617188 304.699219 C 407.136719 305.488281 408.207031 305.714844 409.003906 305.191406 C 410.855469 303.976562 413.296875 303.289062 415.699219 303.371094 C 418.101562 303.425781 420.5 304.199219 422.285156 305.496094 C 422.585938 305.714844 422.941406 305.824219 423.289062 305.824219 C 423.828125 305.824219 424.34375 305.578125 424.6875 305.117188 C 425.242188 304.34375 425.070312 303.269531 424.308594 302.710938 C 421.933594 300.988281 418.90625 300 415.777344 299.929688 Z M 372.945312 300.289062 C 369.8125 300.101562 366.707031 300.859375 364.160156 302.378906 C 363.34375 302.863281 363.078125 303.921875 363.566406 304.738281 C 364.046875 305.550781 365.101562 305.816406 365.925781 305.335938 C 367.859375 304.179688 370.339844 303.609375 372.746094 303.730469 C 375.132812 303.863281 377.472656 304.71875 379.167969 306.066406 C 379.484375 306.316406 379.863281 306.4375 380.234375 306.4375 C 380.742188 306.4375 381.242188 306.214844 381.582031 305.792969 C 382.175781 305.046875 382.050781 303.964844 381.3125 303.371094 C 379.039062 301.5625 376.066406 300.46875 372.945312 300.289062 Z M 378.054688 358.945312 C 377.902344 359.882812 378.535156 360.765625 379.46875 360.925781 C 379.898438 360.992188 386.730469 362.101562 394.4375 362.101562 C 398.453125 362.101562 402.710938 361.796875 406.421875 360.898438 C 407.347656 360.671875 407.914062 359.742188 407.6875 358.820312 C 407.464844 357.894531 406.53125 357.320312 405.613281 357.554688 C 395.457031 360.019531 380.183594 357.554688 380.03125 357.527344 C 379.078125 357.359375 378.207031 358.007812 378.054688 358.945312 Z M 195.996094 534.300781 C 196.375 534.476562 234.199219 551.617188 245.269531 563.351562 C 245.605469 563.707031 246.0625 563.890625 246.515625 563.890625 C 246.941406 563.890625 247.371094 563.738281 247.707031 563.421875 C 248.394531 562.769531 248.425781 561.683594 247.773438 560.988281 C 236.246094 548.761719 198.992188 531.878906 197.410156 531.164062 C 196.539062 530.773438 195.527344 531.164062 195.132812 532.023438 C 194.742188 532.890625 195.128906 533.914062 195.996094 534.300781 Z M 510.179688 566.4375 C 510.597656 566.4375 511.019531 566.285156 511.355469 565.976562 C 529.878906 548.6875 567.910156 540.695312 568.289062 540.613281 C 569.21875 540.421875 569.820312 539.511719 569.628906 538.582031 C 569.441406 537.644531 568.523438 537.050781 567.59375 537.242188 C 566 537.570312 528.242188 545.5 509.003906 563.460938 C 508.308594 564.105469 508.269531 565.199219 508.921875 565.894531 C 509.257812 566.253906 509.71875 566.4375 510.179688 566.4375 Z M 434.664062 289.007812 C 434.835938 285.40625 431.472656 282.671875 427.980469 283.570312 L 395.394531 291.992188 C 395.394531 291.992188 374.492188 286.898438 360.902344 283.632812 C 355.671875 282.382812 350.664062 286.371094 350.710938 291.746094 L 350.828125 306.28125 L 351.921875 309.019531 C 352.632812 308.03125 353.789062 307.386719 355.097656 307.386719 L 386.003906 307.386719 C 388.152344 307.386719 389.90625 309.136719 389.90625 311.289062 L 389.90625 311.492188 L 398.519531 311.492188 L 398.519531 310.902344 C 398.519531 308.96875 400.09375 307.386719 402.027344 307.386719 L 433.71875 307.386719 C 433.75 307.386719 433.773438 307.398438 433.804688 307.398438 Z M 433.785156 316.917969 C 433.75 317.0625 433.703125 317.214844 433.671875 317.351562 L 433.332031 317.523438 L 433.640625 310.902344 L 402.027344 310.832031 L 401.964844 329.957031 L 433.71875 330.019531 L 433.785156 329.957031 Z M 386.457031 311.289062 C 386.457031 311.042969 386.257812 310.832031 386.003906 310.832031 L 355.097656 310.832031 C 354.839844 310.832031 354.636719 311.042969 354.636719 311.289062 L 354.636719 329.5625 C 354.636719 329.816406 354.839844 330.019531 355.097656 330.019531 L 386.003906 330.019531 C 386.257812 330.019531 386.457031 329.816406 386.457031 329.5625 Z M 443.398438 243.761719 C 450.808594 255.636719 451.671875 274.90625 445.050781 300.140625 C 444.355469 299.746094 443.65625 299.714844 442.96875 299.9375 L 437.226562 314.335938 L 437.226562 329.957031 C 437.226562 331.890625 435.652344 333.464844 433.71875 333.464844 L 402.027344 333.464844 C 400.09375 333.464844 398.519531 331.890625 398.519531 329.957031 L 398.519531 314.929688 L 389.90625 314.929688 L 389.90625 329.5625 C 389.90625 331.714844 388.152344 333.464844 386.003906 333.464844 L 355.097656 333.464844 C 352.949219 333.464844 351.195312 331.714844 351.195312 329.5625 L 351.195312 315.492188 C 350.875 315.308594 350.609375 315.011719 350.460938 314.644531 L 344.664062 300.113281 C 343.46875 299.53125 342.265625 299.4375 341.128906 300.132812 C 336.519531 286.648438 332.324219 267.925781 337.71875 253.722656 C 356.84375 203.351562 415.730469 236.015625 415.730469 236.015625 C 415.730469 236.015625 434.703125 229.828125 443.398438 243.761719 Z M 685.988281 84.070312 C 685.464844 84.867188 685.6875 85.9375 686.484375 86.453125 C 686.773438 86.648438 687.101562 86.738281 687.425781 86.738281 C 687.988281 86.738281 688.539062 86.46875 688.867188 85.96875 C 715.902344 44.875 689.910156 16.902344 689.644531 16.625 C 688.988281 15.941406 687.898438 15.917969 687.210938 16.574219 C 686.519531 17.234375 686.503906 18.320312 687.160156 19.007812 C 687.40625 19.261719 711.53125 45.246094 685.988281 84.070312 Z M 674.921875 81.230469 C 675.214844 81.425781 675.542969 81.515625 675.867188 81.515625 C 676.429688 81.515625 676.980469 81.242188 677.308594 80.738281 C 698.511719 48.515625 678.078125 26.527344 677.871094 26.3125 C 677.210938 25.625 676.132812 25.597656 675.441406 26.257812 C 674.753906 26.910156 674.726562 28.003906 675.378906 28.691406 C 676.148438 29.5 694.085938 48.984375 674.429688 78.847656 C 673.90625 79.644531 674.125 80.710938 674.921875 81.230469 Z M 663.484375 71.789062 C 663.78125 71.984375 664.109375 72.074219 664.433594 72.074219 C 664.988281 72.074219 665.539062 71.800781 665.867188 71.296875 C 679.691406 50.300781 666.296875 35.894531 666.160156 35.753906 C 665.5 35.066406 664.417969 35.039062 663.738281 35.699219 C 663.046875 36.351562 663.023438 37.4375 663.667969 38.125 C 664.148438 38.632812 675.257812 50.769531 662.996094 69.40625 C 662.472656 70.203125 662.691406 71.269531 663.484375 71.789062 Z M 615.066406 87.945312 C 615.394531 87.945312 615.71875 87.859375 616.015625 87.660156 C 616.804688 87.144531 617.027344 86.074219 616.503906 85.277344 C 591.019531 46.550781 614.335938 21.273438 615.339844 20.210938 C 615.992188 19.523438 615.964844 18.433594 615.277344 17.78125 C 614.59375 17.125 613.503906 17.152344 612.847656 17.832031 C 612.582031 18.113281 586.589844 46.082031 613.625 87.175781 C 613.960938 87.675781 614.503906 87.945312 615.066406 87.945312 Z M 625.191406 81.945312 C 625.519531 82.449219 626.066406 82.722656 626.628906 82.722656 C 626.949219 82.722656 627.277344 82.628906 627.570312 82.4375 C 628.367188 81.914062 628.589844 80.851562 628.0625 80.054688 C 608.414062 50.191406 626.335938 30.714844 627.113281 29.898438 C 627.765625 29.210938 627.746094 28.121094 627.058594 27.464844 C 626.367188 26.808594 625.28125 26.832031 624.621094 27.523438 C 624.414062 27.738281 603.980469 49.726562 625.191406 81.945312 Z M 638.0625 73.28125 C 638.382812 73.28125 638.710938 73.191406 639.011719 72.996094 C 639.800781 72.472656 640.023438 71.410156 639.496094 70.613281 C 627.234375 51.976562 638.339844 39.851562 638.828125 39.339844 C 639.476562 38.652344 639.453125 37.5625 638.769531 36.90625 C 638.082031 36.25 636.992188 36.273438 636.335938 36.964844 C 636.195312 37.101562 622.808594 51.507812 636.625 72.503906 C 636.953125 73.007812 637.503906 73.28125 638.0625 73.28125 Z M 131.410156 582.050781 L 44.867188 582.050781 L 51.195312 588.433594 L 125.078125 588.433594 Z M 134.792969 483.128906 C 134.792969 478.371094 130.941406 474.519531 126.183594 474.519531 C 121.429688 474.519531 117.578125 478.371094 117.578125 483.128906 L 117.578125 511.90625 L 106.296875 511.90625 L 106.296875 466.4375 C 106.296875 459.964844 101.046875 454.707031 94.566406 454.707031 L 83.269531 454.707031 C 76.789062 454.707031 71.539062 459.964844 71.539062 466.4375 L 71.539062 530.609375 L 62.445312 530.609375 L 62.445312 501.820312 C 62.445312 497.066406 58.59375 493.214844 53.839844 493.214844 C 49.089844 493.214844 45.234375 497.066406 45.234375 501.820312 L 45.234375 531.277344 C 45.234375 540.402344 52.65625 547.820312 61.78125 547.820312 L 71.539062 547.820312 L 71.539062 573.210938 L 106.296875 573.210938 L 106.296875 529.128906 L 118.242188 529.128906 C 127.367188 529.128906 134.792969 521.703125 134.792969 512.578125 Z M 695.007812 578.59375 L 695.007812 613.203125 L 700.230469 613.203125 C 701.125 613.203125 701.921875 612.640625 702.21875 611.800781 L 707.144531 597.898438 C 709.167969 592.203125 709.476562 586.082031 708.042969 580.199219 C 707.8125 579.257812 706.972656 578.59375 706 578.59375 Z M 695.007812 569.988281 L 706 569.988281 C 710.949219 569.988281 715.230469 573.351562 716.40625 578.164062 C 718.234375 585.675781 717.835938 593.5 715.257812 600.785156 L 710.332031 614.675781 C 708.8125 618.945312 704.757812 621.8125 700.230469 621.8125 L 695.007812 621.8125 L 695.007812 640.546875 C 695.007812 643.945312 692.25 646.695312 688.859375 646.695312 L 638.347656 646.695312 C 634.949219 646.695312 632.199219 643.945312 632.199219 640.546875 L 632.199219 565.21875 L 695.007812 565.21875 Z M 411.679688 553.160156 C 411.679688 542.832031 401.792969 534.453125 389.601562 534.453125 C 377.410156 534.453125 367.523438 542.832031 367.523438 553.160156 C 367.523438 563.492188 377.410156 571.863281 389.601562 571.863281 C 401.792969 571.863281 411.679688 563.492188 411.679688 553.160156 Z M 489.777344 470.734375 C 490.503906 450.976562 497.867188 435.78125 498.203125 435.105469 C 498.617188 434.25 499.648438 433.894531 500.511719 434.3125 C 501.355469 434.738281 501.710938 435.769531 501.292969 436.621094 C 501.210938 436.78125 493.976562 451.753906 493.226562 470.734375 L 499.699219 470.734375 C 504.214844 470.734375 507.839844 474.46875 507.6875 478.984375 L 502.933594 622.773438 C 502.792969 627.085938 499.257812 630.5 494.945312 630.5 L 277.742188 630.5 C 273.429688 630.5 269.902344 627.085938 269.757812 622.773438 L 265 478.984375 C 264.855469 474.46875 268.472656 470.734375 272.996094 470.734375 L 284.960938 470.734375 C 285.410156 461.59375 279.128906 447.789062 279.066406 447.652344 C 278.667969 446.785156 279.039062 445.765625 279.90625 445.367188 C 280.773438 444.96875 281.792969 445.347656 282.191406 446.207031 C 282.46875 446.820312 288.804688 460.746094 288.40625 470.734375 L 383.769531 470.734375 L 383.339844 439.707031 C 383.296875 436.660156 384.933594 433.839844 387.609375 432.367188 L 390.5625 430.742188 L 371.679688 421.628906 C 368.1875 419.855469 365.128906 417.941406 362.515625 420.566406 L 353.5625 429.558594 C 351.886719 431.238281 349.015625 430.089844 348.964844 427.710938 L 348.34375 397.535156 C 347.710938 392.257812 359.347656 369.410156 359.347656 369.410156 C 359.347656 369.410156 364.996094 406.695312 391.371094 430.292969 L 397.09375 427.140625 C 422.828125 406.304688 427.753906 367.058594 427.753906 367.058594 C 427.753906 367.058594 437.953125 389.085938 437.371094 394.359375 L 439.074219 421.40625 C 439.226562 423.804688 436.519531 425.300781 434.570312 423.898438 L 432.363281 422.316406 C 428.132812 419.269531 421.867188 418.566406 416.65625 420.539062 L 401.355469 426.792969 L 401.355469 470.734375 Z M 799.65625 647.082031 L 503.476562 647.082031 L 504.828125 636.128906 C 505.222656 634.617188 504.082031 633.144531 502.519531 633.144531 L 264.433594 633.144531 C 262.195312 633.144531 260.5625 635.253906 261.125 637.425781 L 262.195312 647.082031 L 113.265625 647.082031 L 115.484375 641.871094 L 58.671875 641.871094 L 60.898438 647.082031 L 10.402344 647.082031 C 4.804688 647.082031 0.269531 651.617188 0.269531 657.210938 L 0.269531 670.921875 C 0.269531 676.519531 4.804688 681.054688 10.402344 681.054688 L 67.5 681.054688 L 67.5 728.9375 L 740.355469 728.9375 L 740.355469 681.054688 L 799.65625 681.054688 C 805.246094 681.054688 809.78125 676.519531 809.78125 670.921875 L 809.78125 657.210938 C 809.78125 651.617188 805.246094 647.082031 799.65625 647.082031 Z M 398.636719 345.714844 C 402.371094 344.363281 397.019531 333.882812 394.269531 328.980469 C 393.667969 327.914062 392.195312 328.015625 391.75 329.148438 C 389.917969 333.894531 386.304688 343.46875 386.339844 345.355469 C 386.375 347.890625 393.757812 347.492188 398.636719 345.714844 Z M 374.113281 313.367188 C 372.351562 313.367188 370.921875 315.558594 370.921875 318.257812 C 370.921875 320.957031 372.351562 323.144531 374.113281 323.144531 C 375.878906 323.144531 377.308594 320.957031 377.308594 318.257812 C 377.308594 315.558594 375.878906 313.367188 374.113281 313.367188 Z M 414.257812 313.367188 C 412.492188 313.367188 411.058594 315.558594 411.058594 318.257812 C 411.058594 320.957031 412.492188 323.144531 414.257812 323.144531 C 416.015625 323.144531 417.445312 320.957031 417.445312 318.257812 C 417.445312 315.558594 416.015625 313.367188 414.257812 313.367188 Z M 391.308594 401.664062 C 397.335938 403.496094 422.523438 378.1875 427.296875 367.589844 C 420.601562 375.703125 409.445312 379.890625 396.847656 379.890625 L 388.296875 379.890625 C 377.3125 379.890625 367.429688 376.707031 360.632812 370.519531 C 369.148438 380.507812 386.355469 400.144531 391.308594 401.664062 Z M 355.78125 364.757812 C 355.78125 364.757812 355.820312 364.808594 355.886719 364.890625 C 355.855469 364.84375 355.839844 364.800781 355.804688 364.757812 Z M 604.949219 133.882812 C 604.949219 136.417969 607.003906 138.476562 609.539062 138.476562 C 612.078125 138.476562 614.132812 136.417969 614.132812 133.882812 C 614.132812 131.347656 612.078125 129.292969 609.539062 129.292969 C 607.003906 129.292969 604.949219 131.347656 604.949219 133.882812 Z M 622.859375 133.882812 C 622.859375 136.417969 624.921875 138.476562 627.449219 138.476562 C 629.992188 138.476562 632.046875 136.417969 632.046875 133.882812 C 632.046875 131.347656 629.992188 129.292969 627.449219 129.292969 C 624.921875 129.292969 622.859375 131.347656 622.859375 133.882812 Z M 641.066406 133.882812 C 641.066406 136.417969 643.125 138.476562 645.664062 138.476562 C 648.199219 138.476562 650.253906 136.417969 650.253906 133.882812 C 650.253906 131.347656 648.199219 129.292969 645.664062 129.292969 C 643.125 129.292969 641.066406 131.347656 641.066406 133.882812 Z M 557.828125 133.882812 C 557.828125 131.347656 555.773438 129.292969 553.238281 129.292969 C 550.703125 129.292969 548.648438 131.347656 548.648438 133.882812 C 548.648438 136.417969 550.703125 138.476562 553.238281 138.476562 C 555.773438 138.476562 557.828125 136.417969 557.828125 133.882812 Z M 530.566406 146.550781 L 526.171875 146.550781 L 526.171875 119.972656 L 530.566406 119.972656 L 530.566406 113.558594 C 530.566406 112.414062 531.496094 111.492188 532.636719 111.492188 L 557.097656 111.492188 L 602.394531 100.191406 C 603.976562 99.792969 605.582031 100.753906 605.972656 102.332031 L 606.734375 105.363281 C 607.125 106.945312 606.164062 108.542969 604.582031 108.941406 L 594.363281 111.492188 L 645.746094 111.492188 L 645.746094 50.464844 C 645.746094 48.832031 647.066406 47.511719 648.691406 47.511719 L 651.816406 47.511719 C 653.449219 47.511719 654.769531 48.832031 654.769531 50.464844 L 654.769531 111.492188 L 670.824219 111.492188 C 671.964844 111.492188 672.894531 112.414062 672.894531 113.558594 L 672.894531 119.972656 L 676.960938 119.972656 L 676.960938 146.550781 L 672.894531 146.550781 L 672.894531 154.207031 C 672.894531 155.351562 671.964844 156.277344 670.824219 156.277344 L 532.636719 156.277344 C 531.496094 156.277344 530.566406 155.351562 530.566406 154.207031 Z M 270.605469 149.460938 L 427.011719 149.460938 L 427.011719 57.09375 L 270.605469 57.09375 Z M 431.09375 103.277344 C 431.09375 105.949219 433.269531 108.125 435.941406 108.125 C 438.617188 108.125 440.792969 105.949219 440.792969 103.277344 C 440.792969 100.601562 438.617188 98.433594 435.941406 98.433594 C 433.269531 98.433594 431.09375 100.601562 431.09375 103.277344 Z M 251.042969 149.484375 L 251.042969 57.066406 C 251.042969 51.71875 255.382812 47.386719 260.734375 47.386719 L 436.972656 47.386719 C 442.324219 47.386719 446.65625 51.71875 446.65625 57.066406 L 446.65625 149.484375 C 446.65625 154.835938 442.324219 159.167969 436.972656 159.167969 L 260.734375 159.167969 C 255.382812 159.167969 251.042969 154.835938 251.042969 149.484375 Z M 22.574219 266.691406 L 22.574219 269.613281 L 25.496094 269.613281 L 25.496094 266.691406 Z M 30.972656 266.691406 L 30.972656 269.613281 L 33.894531 269.613281 L 33.894531 266.691406 Z M 95.152344 250.648438 C 95.152344 249.003906 94.414062 247.890625 92.925781 247.304688 C 94.238281 246.488281 94.894531 245.410156 94.894531 244.070312 C 94.894531 242.832031 94.445312 241.8125 93.546875 241.003906 C 92.648438 240.199219 91.175781 239.800781 89.128906 239.800781 L 85.617188 239.800781 L 85.617188 255.042969 L 90.132812 255.042969 C 91.644531 255.042969 92.859375 254.636719 93.773438 253.828125 C 94.699219 253.027344 95.152344 251.964844 95.152344 250.648438 Z M 83.46875 239.800781 L 75.214844 239.800781 L 75.214844 243.28125 L 77.578125 243.28125 L 77.578125 255.042969 L 81.082031 255.042969 L 81.082031 243.28125 L 83.46875 243.28125 Z M 70.953125 239.800781 L 65.714844 239.800781 L 65.714844 243.003906 L 67.65625 243.003906 L 67.65625 255.042969 L 70.953125 255.042969 Z M 141.171875 354.308594 L 127.265625 354.308594 C 127.429688 354.574219 127.550781 354.867188 127.550781 355.203125 L 127.550781 376.816406 C 127.550781 382.085938 125.484375 387.011719 121.734375 390.691406 C 118.066406 394.300781 113.238281 396.273438 108.113281 396.273438 C 107.992188 396.273438 107.878906 396.269531 107.757812 396.269531 L 46.390625 395.207031 C 36.019531 395.027344 27.628906 386.765625 27.285156 376.394531 L 26.835938 299.890625 L 20.621094 299.890625 C 19.539062 299.890625 18.660156 299.011719 18.660156 297.933594 L 18.660156 275.40625 L 27.632812 275.40625 L 27.632812 266.691406 L 29.304688 266.691406 L 29.304688 275.40625 L 38.277344 275.40625 L 38.277344 297.933594 C 38.277344 299.011719 37.398438 299.890625 36.324219 299.890625 L 30.277344 299.890625 L 30.726562 376.324219 C 31.003906 384.816406 37.910156 391.613281 46.445312 391.761719 L 107.820312 392.828125 C 112.121094 392.886719 116.230469 391.273438 119.316406 388.238281 C 122.402344 385.203125 124.105469 381.148438 124.105469 376.816406 L 124.105469 355.203125 C 124.105469 354.867188 124.230469 354.574219 124.390625 354.308594 L 60.484375 354.308594 C 57.179688 354.308594 54.492188 351.628906 54.492188 348.316406 L 54.492188 237.867188 C 54.492188 234.558594 57.179688 231.871094 60.484375 231.871094 L 141.171875 231.871094 C 144.488281 231.871094 147.167969 234.558594 147.167969 237.867188 L 147.167969 348.316406 C 147.167969 351.628906 144.488281 354.308594 141.171875 354.308594 Z M 89.359375 248.777344 L 89.070312 248.777344 L 89.070312 252.078125 C 89.949219 252.058594 90.601562 251.925781 91.042969 251.667969 C 91.480469 251.414062 91.695312 250.996094 91.695312 250.40625 C 91.695312 249.320312 90.917969 248.777344 89.359375 248.777344 Z M 91.390625 244.40625 C 91.390625 243.785156 91.203125 243.355469 90.835938 243.117188 C 90.46875 242.871094 89.878906 242.742188 89.070312 242.722656 L 89.070312 246.011719 C 90.613281 245.976562 91.390625 245.4375 91.390625 244.40625 Z M 32.839844 155.695312 C 34.039062 156.503906 35.53125 156.757812 36.9375 156.382812 L 39.730469 155.636719 C 39.65625 155.46875 39.578125 155.300781 39.523438 155.113281 L 20.523438 87.65625 C 20.488281 87.535156 20.480469 87.410156 20.460938 87.296875 L 17.566406 88.238281 C 16.625 88.546875 15.789062 89.109375 15.195312 89.902344 C 12.714844 93.164062 7.410156 103.289062 13.265625 125.546875 C 18.128906 144.039062 28.449219 152.722656 32.839844 155.695312 Z M 56.984375 150.199219 C 57.050781 150.464844 57.097656 150.722656 57.117188 150.988281 L 58.152344 150.710938 C 60.847656 149.992188 62.425781 147.195312 61.648438 144.515625 L 44.410156 84.886719 C 43.625 82.179688 40.753906 80.65625 38.074219 81.535156 L 37.511719 81.71875 C 37.699219 82.035156 37.871094 82.367188 37.980469 82.734375 Z M 140.40625 157.425781 L 143.203125 158.171875 C 144.605469 158.546875 146.097656 158.292969 147.300781 157.476562 C 151.691406 154.511719 162.011719 145.828125 166.875 127.339844 C 172.730469 105.078125 167.429688 94.953125 164.949219 91.691406 C 164.351562 90.898438 163.515625 90.335938 162.574219 90.027344 L 159.675781 89.085938 C 159.65625 89.203125 159.652344 89.324219 159.613281 89.445312 L 140.617188 156.910156 C 140.558594 157.09375 140.484375 157.257812 140.40625 157.425781 Z M 118.488281 146.304688 L 135.726562 86.675781 C 136.511719 83.96875 139.382812 82.449219 142.066406 83.324219 L 142.628906 83.507812 C 142.4375 83.824219 142.265625 84.160156 142.164062 84.53125 L 123.15625 151.988281 C 123.085938 152.253906 123.042969 152.519531 123.023438 152.78125 L 121.984375 152.5 C 119.292969 151.78125 117.710938 148.984375 118.488281 146.304688 "/>
</g>
</g>
</svg>
